<?xml version="1.0" encoding="UTF-8"?>
<svg width="88px" height="88px" viewBox="0 0 88 88" version="1.1" xmlns="http://www.w3.org/2000/svg" xmlns:xlink="http://www.w3.org/1999/xlink">
    <!-- Generator: Sketch 55.2 (78181) - https://sketchapp.com -->
    <title>分组</title>
    <desc>Created with Sketch.</desc>
    <defs>
        <linearGradient x1="49.9998229%" y1="0.466117458%" x2="49.9998229%" y2="139.277455%" id="linearGradient-1">
            <stop stop-color="#087C62" offset="0%"></stop>
            <stop stop-color="#3BA59A" offset="100%"></stop>
        </linearGradient>
        <linearGradient x1="49.999491%" y1="-26.9472811%" x2="49.999491%" y2="113.192558%" id="linearGradient-2">
            <stop stop-color="#087C62" offset="0%"></stop>
            <stop stop-color="#3BA59A" offset="100%"></stop>
        </linearGradient>
        <linearGradient x1="49.9993331%" y1="-71.1548247%" x2="49.9993331%" y2="102.057025%" id="linearGradient-3">
            <stop stop-color="#087C62" offset="0%"></stop>
            <stop stop-color="#3BA59A" offset="100%"></stop>
        </linearGradient>
    </defs>
    <g id="登录" stroke="none" stroke-width="1" fill="none" fill-rule="evenodd">
        <g id="1-1-1-默认" transform="translate(-106.000000, -88.000000)">
            <g id="分组" transform="translate(100.000000, 82.000000)">
                <g id="编组" transform="translate(6.000000, 6.000000)">
                    <path d="M87.244149,36.7289569 C86.2554431,33.7826824 84.3297961,31.1219765 82.3791294,28.2835451 C81.8226588,27.4742902 81.2256392,26.6891922 80.6053255,25.9170353 C79.2697961,30.849349 70.5293255,44.2193098 57.3733255,57.3753098 C44.1077569,70.6408784 30.6316784,79.4106824 25.8011686,80.6331922 C26.6837569,81.3440941 27.5836,82.0360157 28.5067373,82.6968784 C30.7938745,84.3309176 32.9602275,86.3247216 35.6839137,87.2073098 C35.9013255,87.2771922 36.126502,87.3349961 36.3490902,87.3945255 C41.7291686,85.3567216 53.6238353,77.2115451 65.416698,65.4186824 C76.9412471,53.8949961 84.9811686,42.2729569 87.244149,36.7289569" id="Fill-1" fill="#046158"></path>
                    <path d="M67.2211294,12.219749 C66.2013647,11.1473569 65.0694431,10.1603765 63.8590118,9.2846902 C62.7503843,13.8632784 53.7467765,27.1271216 40.4363451,40.4384157 C27.0223843,53.8515137 13.6550118,62.8922196 9.17650196,63.8878275 C11.4877961,66.9272784 14.3607373,69.6984157 17.008502,72.4195137 C21.2652863,71.8164549 35.2745412,62.9137882 49.0905412,49.0969255 C62.4846588,35.7028078 71.3243451,22.0636706 72.4165804,17.3504941 C70.6393255,15.6465725 68.8698353,13.9538667 67.2211294,12.219749 Z" id="Fill-3" fill="#046158"></path>
                    <path d="M32.8887059,0 C31.0855686,0 29.6232157,1.40972549 29.6232157,3.23529412 L29.6232157,3.23529412 L29.6232157,11.4158431 L24.7193725,12.7591373 C19.5575686,14.1731765 14.1800784,19.5334118 12.7591373,24.7193725 L12.7591373,24.7193725 C12.7591373,24.7193725 12.4658039,25.7891765 12.0059608,27.4680784 L12.0059608,27.4680784 L11.4158431,29.6232157 L3.23529412,29.6232157 C1.40886275,29.6232157 0,31.0855686 0,32.8887059 L0,32.8887059 C0,34.6400784 1.44854902,36.1550588 3.23529412,36.1550588 L3.23529412,36.1550588 L9.6265098,36.1550588 L9.29780392,37.352549 C7.65858824,43.3408627 6.05215686,49.2049412 6.05129412,49.2083922 L6.05129412,49.2083922 C4.8494902,53.5945882 5.82180392,59.1627451 8.4307451,62.8803137 L8.4307451,62.8803137 C8.66972549,63.2202353 8.9225098,63.5541176 9.17615686,63.888 L9.17615686,63.888 C13.6546667,62.8923922 27.022902,53.8516863 40.436,40.4377255 L40.436,40.4377255 C53.7472941,27.1264314 62.750902,13.863451 63.8595294,9.28486275 L63.8595294,9.28486275 C59.6527843,6.24282353 54.4426667,4.61654902 49.2083922,6.05129412 L49.2083922,6.05129412 L40.8923922,8.32807843 L39.1686275,8.80172549 L36.1550588,9.6265098 L36.1550588,3.23529412 C36.1550588,1.44854902 34.6400784,0 32.8887059,0 Z" id="Fill-5" fill="url(#linearGradient-1)"></path>
                    <path d="M17.0090196,72.4196863 C17.1220392,72.5361569 17.2376471,72.6534902 17.3506667,72.7699608 C20.0225882,75.5359216 22.8040784,78.2181961 25.8012549,80.6330196 C30.6317647,79.4105098 44.1069804,70.6407059 57.3734118,57.376 C70.5294118,44.2191373 79.2698824,30.8491765 80.6054118,25.9168627 C78.1595294,22.8756863 75.2796863,20.0959216 72.417098,17.3506667 C71.3248627,22.0638431 62.4851765,35.7029804 49.0910588,49.097098 C35.2750588,62.9139608 21.2649412,71.8166275 17.0090196,72.4196863 Z" id="Fill-7" fill="url(#linearGradient-2)"></path>
                    <path d="M65.4167843,65.4193725 C53.6239216,77.2113725 41.7292549,85.356549 36.3500392,87.3952157 L36.3500392,87.3952157 C37.6501961,87.7454902 39.0530196,87.9275294 40.4463529,87.9283922 L40.4463529,87.9283922 L40.4713725,87.9283922 C41.7792941,87.9275294 43.0785882,87.7670588 44.2803922,87.4374902 L44.2803922,87.4374902 L68.7702745,80.7296471 C69.8141961,80.4432157 70.8667451,79.995451 71.8951373,79.42 L71.8951373,79.42 L83.0866667,83.0875294 L79.4208627,71.896 C79.995451,70.8693333 80.4423529,69.8167843 80.7287843,68.7702745 L80.7287843,68.7702745 C80.7287843,68.7702745 87.4366275,44.2829804 87.4374902,44.2803922 L87.4374902,44.2803922 C87.773098,43.0570196 87.9249412,41.9061176 87.9275294,40.8087059 L87.9275294,40.8087059 L87.9275294,40.7457255 C87.9240784,39.3282353 87.6712941,38.0013333 87.2442353,36.7287843 L87.2442353,36.7287843 C84.9812549,42.2727843 76.9413333,53.8948235 65.4167843,65.4193725" id="Fill-9" fill="url(#linearGradient-3)"></path>
                </g>
            </g>
        </g>
    </g>
</svg>