<?xml version="1.0" encoding="utf-8"?>
<!-- Generator: Adobe Illustrator 25.3.1, SVG Export Plug-In . SVG Version: 6.00 Build 0)  -->
<svg version="1.1" id="图层_1" xmlns="http://www.w3.org/2000/svg" xmlns:xlink="http://www.w3.org/1999/xlink" x="0px" y="0px"
	 viewBox="0 0 16 16" style="enable-background:new 0 0 16 16;" xml:space="preserve">
<style type="text/css">
	.st0{fill:#C0C4CC;}
</style>
<g>
	<g>
		<path class="st0" d="M13,5.1L8,10L3,5.1C2.9,5,2.8,4.9,2.7,4.9S2.4,5,2.3,5.1C2.2,5.2,2.2,5.3,2.2,5.4s0,0.2,0.1,0.3l5.3,5.2
			C7.7,11,7.9,11.1,8,11.1s0.3,0,0.3-0.1l5.3-5.2c0.1-0.1,0.1-0.2,0.1-0.3c0-0.1,0-0.2-0.1-0.3c-0.1-0.1-0.2-0.1-0.3-0.1
			S13.1,5,13,5.1L13,5.1L13,5.1z"/>
	</g>
</g>
</svg>
