<?xml version="1.0" encoding="utf-8"?>
<!-- Generator: Adobe Illustrator 25.3.1, SVG Export Plug-In . SVG Version: 6.00 Build 0)  -->
<svg version="1.1" id="图层_1" xmlns="http://www.w3.org/2000/svg" xmlns:xlink="http://www.w3.org/1999/xlink" x="0px" y="0px"
	 viewBox="0 0 16 16" style="enable-background:new 0 0 16 16;" xml:space="preserve">
<style type="text/css">
	.st0{fill:#C0C4CC;}
</style>
<g>
	<g>
		<path class="st0" d="M2,6v8h12V3h-2v0.5c0,0.1,0,0.3-0.1,0.4C11.8,4,11.6,4,11.5,4s-0.3,0-0.4-0.1C11,3.8,11,3.6,11,3.5V3H5v0.5
			c0,0.1,0,0.3-0.1,0.4C4.8,4,4.6,4,4.5,4S4.2,4,4.1,3.9C4,3.8,4,3.6,4,3.5V3H2v2h12v1H2L2,6z M5,2h6V1.5c0-0.1,0-0.3,0.1-0.4
			C11.2,1,11.4,1,11.5,1s0.3,0,0.4,0.1C12,1.2,12,1.4,12,1.5V2h2.5c0.1,0,0.3,0,0.4,0.1C15,2.2,15,2.4,15,2.5v12
			c0,0.1,0,0.3-0.1,0.4C14.8,15,14.6,15,14.5,15h-13c-0.1,0-0.3,0-0.4-0.1C1,14.8,1,14.6,1,14.5v-12c0-0.1,0-0.3,0.1-0.4
			C1.2,2,1.4,2,1.5,2H4V1.5c0-0.1,0-0.3,0.1-0.4C4.2,1,4.4,1,4.5,1s0.3,0,0.4,0.1C5,1.2,5,1.4,5,1.5V2L5,2L5,2z M4.5,8h1
			c0.1,0,0.3,0,0.4,0.1S6,8.4,6,8.5s0,0.3-0.1,0.4S5.6,9,5.5,9h-1C4.4,9,4.2,9,4.1,8.9S4,8.6,4,8.5s0-0.3,0.1-0.4S4.4,8,4.5,8L4.5,8
			L4.5,8z M4.5,11h1c0.1,0,0.3,0,0.4,0.1C6,11.2,6,11.4,6,11.5s0,0.3-0.1,0.4C5.8,12,5.6,12,5.5,12h-1c-0.1,0-0.3,0-0.4-0.1
			C4,11.8,4,11.6,4,11.5s0-0.3,0.1-0.4C4.2,11,4.4,11,4.5,11L4.5,11z M7.5,8h1c0.1,0,0.3,0,0.4,0.1S9,8.4,9,8.5s0,0.3-0.1,0.4
			S8.6,9,8.5,9h-1C7.4,9,7.2,9,7.1,8.9S7,8.6,7,8.5s0-0.3,0.1-0.4S7.4,8,7.5,8L7.5,8L7.5,8z M7.5,11h1c0.1,0,0.3,0,0.4,0.1
			C9,11.2,9,11.4,9,11.5s0,0.3-0.1,0.4C8.8,12,8.6,12,8.5,12h-1c-0.1,0-0.3,0-0.4-0.1C7,11.8,7,11.6,7,11.5s0-0.3,0.1-0.4
			C7.2,11,7.4,11,7.5,11L7.5,11z M10.5,8h1c0.1,0,0.3,0,0.4,0.1C12,8.2,12,8.4,12,8.5s0,0.3-0.1,0.4C11.8,9,11.6,9,11.5,9h-1
			c-0.1,0-0.3,0-0.4-0.1S10,8.6,10,8.5s0-0.3,0.1-0.4S10.4,8,10.5,8L10.5,8L10.5,8z M10.5,11h1c0.1,0,0.3,0,0.4,0.1
			c0.1,0.1,0.1,0.2,0.1,0.4s0,0.3-0.1,0.4C11.8,12,11.6,12,11.5,12h-1c-0.1,0-0.3,0-0.4-0.1C10,11.8,10,11.6,10,11.5s0-0.3,0.1-0.4
			C10.2,11,10.4,11,10.5,11L10.5,11z"/>
	</g>
</g>
</svg>
